<svg width="167" height="219" viewBox="0 0 167 219" fill="none" xmlns="http://www.w3.org/2000/svg">
<g clip-path="url(#clip0_968_4580)">
<path d="M11.2227 72.7111C11.2227 72.7111 5.78739 75.6696 4.82514 78.3975C3.86288 81.1253 2.00462 85.0059 6.55789 95.2119C11.1112 105.418 22.4665 115.093 22.4665 115.093C22.4665 115.093 33.1001 123.193 39.0201 125.833C11.5226 146.591 27.8077 167.349 27.8077 167.349C27.8077 167.349 21.2811 200.136 25.8274 213.727C40.0276 222.078 57.7457 215.012 60.2454 211.296C68.6477 220.52 92.6902 216.961 96.588 212.441C101.26 207.028 95.9186 189.543 94.1789 183.713C100.224 173.71 96.8913 161.296 93.492 153.937C122.293 157.981 128.736 153.902 132.024 151.611C144.23 143.098 140.534 127.94 134.283 121.677C137.857 118.865 147.375 111.754 146.304 103.678C145.234 95.6031 140.963 93.7344 140.963 93.7344C140.963 93.7344 146.74 86.2528 148.023 80.8739C149.306 75.4949 149.679 65.1771 149.627 64.8732C149.575 64.5694 137.543 33.2492 123.057 24.594C108.571 15.9388 96.9227 11.4016 96.9227 11.4016L102.508 7.58745C102.508 7.58745 95.1272 4.91544 83.7196 9.87525C83.7196 9.87525 87.206 5.64544 87.0596 2.25391C87.0596 2.25391 82.7225 7.59094 76.0459 8.68419C69.3694 9.77745 48.7681 10.7939 34.2018 19.5154C19.6355 28.2335 9.52485 42.1804 9.52485 57.3287C9.52485 72.4771 11.2297 72.7146 11.2297 72.7146L11.2227 72.7111Z" fill="#CBA268"/>
<path d="M58.7423 189.974C48.0285 188.874 40.9581 178.357 39.3264 168.752C37.8133 159.859 40.5432 148.623 49.587 142.503C60.0986 135.388 77.7643 136.838 84.0329 146.908C89.7472 156.087 92.7176 175.427 82.2723 183.408C74.1733 189.597 65.8302 190.704 58.7423 189.974Z" fill="#FCCF8F"/>
<path d="M139.572 95.213C148.828 85.9396 150.366 72.7961 149.773 66.0445C149.177 59.2928 140.021 25.0841 96.9187 11.3992L102.504 7.58508C92.2225 5.54877 83.7156 9.87288 83.7156 9.87288C88.0946 5.4859 86.9092 0.8125 86.9092 0.8125C81.8295 10.2257 71.7607 9.10795 59.6453 10.9172C47.53 12.7265 20.3463 24.3576 14.2032 39.0554C3.89032 63.7357 13.2863 77.1237 13.2863 77.1237" stroke="#231F20" stroke-width="2.39514" stroke-miterlimit="10" stroke-linecap="round"/>
<path d="M140.956 93.7344C140.956 93.7344 146.298 95.9628 146.298 102.889C146.298 109.134 143.913 116.085 133.959 122.299" stroke="#231F20" stroke-width="2.39514" stroke-miterlimit="10" stroke-linecap="round"/>
<path d="M94.455 134.56C99.214 133.547 103.687 131.389 107.637 128.612C109.063 127.603 110.507 126.356 111.797 125.175C114.23 123.181 116.573 121.169 119.502 119.723C123.047 117.886 127.37 117.83 131.038 119.384C140.187 123.352 143.084 133.561 139.74 142.514C134.824 156.646 120.774 158.109 107.822 156.796C104.13 156.46 100.462 156.034 96.8014 155.465C95.501 155.238 94.2877 155.091 92.9977 154.676L94.2947 153.216C97.1047 159.077 98.6562 165.57 98.3703 172.077C97.8857 178.217 95.3475 186.045 88.4653 187.257C95.7066 184.951 96.526 176.198 96.2889 169.702C96.1773 163.432 94.1901 157.281 91.244 151.787L93.7333 152.716C95.996 153.327 98.4121 153.579 100.741 153.914C103.157 154.228 105.584 154.497 108.007 154.714C119.923 155.895 133.262 154.927 137.767 141.822C140.246 135.151 139.067 127.449 133.186 123.027C129.588 120.25 124.508 119.461 120.415 121.616C118.344 122.629 116.43 124.089 114.572 125.636C113.714 126.37 112.623 127.334 111.699 127.966C106.651 131.571 100.65 134.047 94.4585 134.567L94.455 134.56Z" fill="#231F20"/>
<path d="M33.2783 141.796C31.0644 157.93 27.1456 173.77 25.371 189.956C24.8132 195.272 24.3495 200.699 24.7679 206.016C25.2839 218.897 40.3313 217.514 49.4483 215.404C52.1364 214.758 54.922 214.018 57.4357 212.917C57.7181 212.732 58.14 212.502 58.3631 212.254C58.6351 211.932 58.7397 211.37 58.8199 210.898C59.0325 209.669 58.9698 208.303 59.1197 206.969C59.4544 203.082 59.674 198.705 59.9495 194.776L60.2388 190.699C60.3818 192.736 60.6677 196.815 60.7792 198.852C60.9361 202.966 61.4835 207.109 60.8838 211.227C60.7339 212.069 60.5631 212.914 59.9286 213.637C59.6392 213.983 59.2592 214.227 58.9175 214.451C58.5967 214.674 58.2028 214.887 57.8646 215.02C52.6698 217.032 47.2798 218.258 41.7329 218.74C35.5828 219.236 27.7697 218.46 24.3844 212.477C23.2827 210.57 22.8608 208.359 22.683 206.197C22.4459 203.41 22.4843 200.651 22.6168 197.909C23.0491 189.718 24.2624 181.594 25.6291 173.529C27.3723 162.757 29.764 152.125 33.2783 141.793V141.796Z" fill="#231F20"/>
<path d="M94.0575 183.409C95.5741 186.277 96.6933 189.344 97.6416 192.445C98.5969 197.22 99.1373 202.078 99.1756 206.947C99.4964 210.978 96.519 213.615 93.179 215.044C88.6117 216.982 83.6261 217.538 78.7556 217.824C77.5842 217.89 76.2837 217.908 75.1053 217.911C72.9856 217.821 70.9808 217.422 68.9413 216.912C65.4339 215.955 59.7197 213.923 59.8208 209.487C59.8626 206.864 59.9254 204.23 60.2392 201.624C60.539 203.923 61.0376 206.451 61.442 208.746C61.9475 212.578 66.2149 213.961 69.4677 214.883C71.6781 215.439 74.0106 215.889 76.2872 215.805C80.199 215.732 84.17 215.39 87.9563 214.523C91.8018 213.573 97.4777 211.799 97.0768 206.961C97.0349 202.229 96.5224 197.499 95.5741 192.861C95.2394 189.686 94.7513 186.521 94.0506 183.402L94.0575 183.409Z" fill="#231F20"/>
<path d="M27.8043 167.348C27.8043 167.348 21.5182 160.149 22.6165 150.24C24.4643 133.586 39.0131 125.832 39.0131 125.832" stroke="#231F20" stroke-width="2.39514" stroke-miterlimit="10"/>
<path d="M55.2075 189.363C57.1251 190.114 59.1995 189.975 61.2216 189.999C62.3129 189.978 64.7987 189.894 65.862 189.912C66.3885 189.915 66.9184 189.912 67.4623 189.975C64.3071 191.564 57.7108 192.388 55.2075 189.363Z" fill="#231F20"/>
<path d="M63.0798 133.617C65.3356 134.368 67.7238 134.372 70.0701 134.62C71.8482 134.752 73.6367 134.878 75.4079 135.102C76.0075 135.178 76.6072 135.252 77.2138 135.388C75.4462 135.881 73.6158 136.066 71.7854 136.08C69.0068 136.031 65.1438 135.671 63.0798 133.617Z" fill="#231F20"/>
<path d="M22.78 71.6913C28.9475 65.8967 38.8594 64.7406 46.289 68.7084C48.7679 70.0077 50.9818 71.7367 52.7738 73.8114C50.1241 72.2362 47.5197 70.839 44.6922 69.882C37.5346 67.2903 29.5472 68.3906 22.78 71.6878V71.6913Z" fill="#231F20"/>
<path d="M100.172 80.9474C107.71 77.9051 117.036 79.194 123.263 84.5275C125.334 86.3158 127.028 88.4988 128.186 90.9124C126.314 89.0018 124.386 87.2624 122.266 85.8408C115.809 81.4538 107.86 80.371 100.172 80.9509V80.9474Z" fill="#231F20"/>
<path d="M58.2759 104.846C58.2759 104.846 57.0312 102.572 57.4287 97.9058C57.8261 93.2394 57.1741 86.7148 61.1278 82.5548C64.6281 78.8699 72.7585 76.6764 74.9619 76.7113C77.1653 76.7463 81.0527 76.6485 83.162 78.0247C85.2713 79.4008 88.1859 80.8992 88.8449 81.5629C89.5038 82.2265 92.1849 84.3432 92.9624 88.297C93.7398 92.2509 94.0466 97.078 93.2308 99.3972C92.415 101.716 89.0227 110.036 82.9981 113.557C76.9736 117.078 67.8601 113.302 67.8601 113.302C67.8601 113.302 59.9982 110.7 58.2724 104.85L58.2759 104.846Z" fill="#FCCF8F"/>
<path d="M77.8068 88.7747L80.3066 88.0273C81.9417 87.5383 82.8656 85.8058 82.3636 84.1712L82.1893 83.5984C81.8441 82.4772 80.8923 81.6459 79.7348 81.4643L75.6138 80.8041C74.4564 80.619 73.2954 81.1115 72.619 82.0685L72.2738 82.5575C71.2907 83.9546 71.6323 85.8897 73.0339 86.8642L75.178 88.3521C75.9451 88.8865 76.9143 89.0402 77.8068 88.7712V88.7747Z" fill="#231F20" stroke="#231F20" stroke-width="1.19757" stroke-miterlimit="10" stroke-linecap="round"/>
<path d="M66.3217 95.2154C66.3217 95.2154 65.9731 99.9412 67.6675 102.292C69.3619 104.643 73.0401 108.918 77.1018 107.049C81.1635 105.18 84.4024 98.813 84.4024 97.5906C84.4024 96.3681 83.4262 96.7977 81.9584 96.7977C80.4906 96.7977 78.1651 96.3855 76.9832 95.2154C75.8013 94.0453 75.5329 94.2619 75.5329 94.2619C75.5329 94.2619 74.8705 94.922 73.4654 95.2154C72.0604 95.5088 69.0098 96.9933 67.9081 95.8896C66.8064 94.7858 66.3217 95.2154 66.3217 95.2154Z" fill="black"/>
<path d="M67.6683 102.288C67.6683 102.288 71.1617 100.098 73.1316 100.465C75.1014 100.832 75.3315 101.356 75.3315 101.356C75.3315 101.356 77.7685 99.5884 80.3241 100.423C82.8796 101.258 82.667 101.656 82.667 101.656C82.667 101.656 79.8743 106.808 76.1613 107.035C72.4482 107.262 68.1181 104.202 67.6718 102.288H67.6683Z" fill="#F57B8D"/>
<path d="M85.0437 95.213C81.0761 100.358 75.7976 94.0429 75.7976 94.0429C75.7976 94.0429 69.2257 99.7013 66.1472 92.9531C66.1472 92.9531 64.7143 105.566 74.1904 106.952C82.4846 108.164 85.0437 95.213 85.0437 95.213Z" stroke="#231F20" stroke-width="2.99392" stroke-linecap="round" stroke-linejoin="round"/>
<path d="M75.8019 94.0453L76.1575 88.0586" stroke="#231F20" stroke-width="2.99392" stroke-miterlimit="10"/>
<path d="M57.4568 97.7461C56.9025 105.787 61.8428 110.998 69.1712 113.195C69.4641 113.307 70.0603 113.495 70.3671 113.572C72.3334 114.152 74.4323 114.585 76.4858 114.644C80.5231 114.809 83.7027 113.401 86.6348 110.645C84.4174 113.376 81.3424 115.2 77.7792 115.451C74.7739 115.727 71.6989 115.112 68.8505 114.18C66.804 113.52 64.7609 112.678 62.9933 111.407C58.6318 108.501 56.2959 102.811 57.4568 97.7461Z" fill="#231F20"/>
<path d="M90.9966 104.609C90.9583 104.236 90.9618 103.897 90.9618 103.555C91.1082 103.293 91.2372 103.017 91.3697 102.748C91.6311 102.203 91.8787 101.655 92.1018 101.099C92.433 100.271 92.7224 99.4366 92.8793 98.5704L93.1826 98.1757C93.2733 98.0395 93.3778 97.8963 93.4894 97.7461C93.6847 98.0535 93.8136 98.3958 93.9113 98.752C93.5556 100.621 92.7363 102.357 91.8996 104.044C91.6172 104.25 91.3348 104.449 90.9966 104.609Z" fill="#231F20"/>
<path d="M58.7045 86.7218C59.6876 82.3314 63.826 78.8595 68.2573 78.3984C64.3629 80.295 61.0334 83.0334 58.7045 86.7218Z" fill="#231F20"/>
<path d="M73.759 76.732C74.1112 76.5014 74.4703 76.3443 74.8294 76.1836L75.9136 76.1906C77.3675 76.2115 78.8109 76.2674 80.2577 76.4595C80.6203 76.5049 80.9899 76.5713 81.356 76.6446C81.6942 76.8857 82.0149 77.1406 82.2764 77.4585C81.987 77.5004 81.4222 77.6087 81.1363 77.668C79.421 77.3292 77.6499 77.2664 75.8997 77.2384C75.5441 77.2384 75.192 77.228 74.8363 77.2384C74.4807 77.0847 74.1216 76.9345 73.759 76.7285V76.732Z" fill="#231F20"/>
<path d="M86.2198 79.9566C86.8439 79.9566 87.4506 80.1173 88.0467 80.3129C88.5453 80.6622 89.0404 81.0149 89.4831 81.4306C91.7423 83.4529 93.109 86.2891 93.7227 89.2266C93.6773 89.8448 93.6041 90.4525 93.4891 91.0498C93.0672 90.2325 92.6558 89.5025 92.4954 88.6188C91.8923 86.1948 90.6441 83.886 88.7789 82.206C88.6011 82.0348 88.3431 81.8253 88.1444 81.6751C87.3948 81.2036 86.9067 80.5539 86.2198 79.9531V79.9566Z" fill="#231F20"/>
<path d="M22.8982 42.8818C22.8982 42.8818 12.9235 38.3237 11.1001 35.1382C9.2767 31.9528 5.30566 23.315 8.40161 16.8428C11.4976 10.3706 16.3367 2.49779 29.8153 0.279851C43.2938 -1.94158 48.5548 9.78033 48.5548 10.1506C48.5548 10.5208 50.3015 14.0136 49.8065 17.8138C49.3114 21.614 48.628 23.4897 48.628 23.4897C48.628 23.4897 35.676 36.717 33.1378 39.0083C30.5997 41.2996 22.8982 42.8818 22.8982 42.8818Z" fill="#CCA269"/>
<path d="M40.4459 21.9258C40.4459 21.9258 39.3511 16.3583 37.2 13.8294C35.0489 11.3041 29.6693 9.81619 28.0865 9.84414C26.5036 9.87208 23.7528 10.0747 21.7203 12.3136C19.6877 14.5525 14.5766 20.7033 17.7771 30.0955C18.8579 33.2705 25.3496 33.6512 25.3496 33.6512C25.3496 33.6512 26.3468 38.2617 26.8174 37.7658C26.8174 37.7658 26.9917 35.4221 28.2957 33.5569C28.2957 33.5569 29.7983 32.0725 30.2934 31.58C30.2934 31.58 32.054 26.236 40.4459 21.9223V21.9258Z" fill="#FCCF8F"/>
<path d="M23.3067 42.8798C19.1544 42.4537 15.138 40.6654 11.9863 37.8432C7.47134 33.1733 5.79437 26.3029 6.69387 19.9634C7.62126 13.5995 11.5923 7.91319 16.7522 4.24922C22.7524 -0.0329808 30.67 -2.17408 37.8835 -0.0679091C42.2799 1.16156 46.4322 3.86152 48.653 7.94812C51.1528 12.2478 50.6961 18.0668 49.0888 22.5726C49.3957 20.5712 49.448 18.5314 49.2353 16.5335C48.9355 13.5786 47.9244 10.8716 46.4636 8.36376C44.6959 5.51013 41.8092 3.50874 38.6819 2.39802C31.7683 -0.221594 23.8541 1.74836 17.969 5.95372C9.60155 11.8671 6.1465 22.101 10.2849 31.6434C11.0763 33.4038 12.185 34.9791 13.5098 36.3727C16.0375 39.4289 19.5344 41.6574 23.3067 42.8764V42.8798Z" fill="#231F20"/>
<path d="M29.6166 35.793C28.2813 35.1957 28.2255 33.5646 28.8426 32.4154L29.3516 32.88C28.2464 33.8999 27.2702 35.2865 27.2249 36.8269L27.0994 38.8492C26.6357 38.1751 25.656 36.9805 25.4155 36.2121C25.0145 35.1747 24.9483 34.0326 25.1366 32.9428L25.8896 33.7602C22.3579 34.0081 18.1846 32.6948 16.8354 29.0972C16.3821 27.9446 16.2427 26.7256 16.2671 25.5485C16.3647 23.2537 16.6576 21.0044 17.2712 18.7794C18.474 14.1934 21.6048 9.82733 26.7333 9.49202C30.7671 9.24752 35.2472 10.6446 37.6877 14.0222C39.3856 16.3624 40.0515 19.2824 40.4803 22.0208C40.1073 20.9659 39.7377 19.9111 39.2984 18.9017C38.0468 15.9607 35.8852 13.383 32.995 12.0069C30.1919 10.7704 26.7264 10.3128 23.9058 11.6855C21.033 13.1176 19.4781 16.1214 18.6169 19.1567C18.0417 21.2279 17.7558 23.4249 17.6651 25.58C17.6442 26.6243 17.7697 27.6617 18.1358 28.5838C19.2724 31.5771 22.7902 32.5377 25.7641 32.37L26.6462 32.3246C26.4021 33.6239 26.2557 35.0909 26.9913 36.261C27.0227 36.3099 27.0715 36.3798 27.082 36.3902L25.8199 36.8303C25.8269 34.8569 27.4202 33.3236 28.9507 32.3106L30.4847 31.3536L29.4597 32.7787C28.738 33.6868 28.5742 35.0455 29.6236 35.8L29.6166 35.793Z" fill="#231F20"/>
<path d="M123.05 32.9903C123.05 32.9903 123.761 25.7322 129.203 22.2673C134.642 18.8024 145.384 19.012 149.477 20.4091C153.57 21.8063 159.201 23.8007 161.732 28.1527C164.263 32.5048 167.603 39.7175 165.114 46.6123C162.624 53.5071 157.248 59.4205 157.248 59.4205C157.248 59.4205 146.716 67.3003 141.525 68.2049C136.333 69.1096 124.486 61.8724 123.922 54.4118L123.05 32.9903Z" fill="#CBA268"/>
<path d="M123.05 32.9887C123.05 29.8347 124.18 26.5829 126.132 24.0436C131.431 17.0929 142.661 17.6029 150.296 19.5414C155.516 20.9315 160.351 24.0681 163.353 28.6262C171.051 40.1595 165.543 55.231 154.895 62.7371C151.29 65.0249 147.364 66.6456 143.334 67.641C147.089 65.8702 150.628 63.7291 153.668 61.0815C160.034 56.3627 164.8 49.0068 164.852 40.9419C165.058 32.8525 160.058 25.4547 152.563 22.5173C147.441 20.4844 140.294 19.7125 134.939 21.0154C129.144 22.5068 124.399 26.8449 123.053 32.9922L123.05 32.9887Z" fill="#231F20"/>
<path d="M130.957 36.4876C130.957 36.4876 131.989 31.182 135.375 29.4321C138.76 27.6787 145.419 26.9452 146.943 27.9058C148.466 28.8663 152.246 29.7709 153.431 33.0507C154.616 36.3305 159.243 47.4656 150.893 54.1334C142.543 60.8047 140.737 57.242 140.737 57.242C140.737 57.242 141.302 55.3768 141.019 54.6433C141.019 54.6433 137.916 57.5843 135.546 57.5843C135.546 57.5843 137.296 54.081 137.519 53.0611C137.519 53.0611 133.74 55.4362 133.231 55.4362C133.231 55.4362 140.395 45.9462 130.957 36.4911V36.4876Z" fill="#FCCF8F"/>
<path d="M132.983 55.5753C134.555 54.7964 136.211 53.7905 137.212 52.3584L138.271 50.7796C138.034 52.292 137.766 54.0978 137.264 55.5404C136.922 56.5184 136.56 57.4824 135.758 58.2333L135.12 57.0318C136.908 56.5742 139.366 55.8338 140.266 54.1013L140.89 52.6274L141.538 54.0629C142.281 55.6975 142.044 57.7583 140.726 59.0227L140.13 57.8386C145.018 56.8991 150.195 54.6392 153.106 50.4548C154.539 48.3801 155.215 45.8722 155.167 43.3539C155.121 40.7657 154.808 38.1636 153.974 35.757C153.165 33.3854 151.746 31.2059 149.637 29.8297C145.446 27.2206 139.45 27.6432 135.343 30.2698C133.268 31.6879 131.679 33.9303 130.964 36.4835C131.358 33.1025 133.401 29.8996 136.389 28.1985C138.184 27.1402 140.374 26.8119 142.403 26.7211C152.625 26.274 156.502 34.2411 156.561 43.3364C156.75 49.2253 153.089 53.9965 148.033 56.5777C145.004 58.2194 141.604 59.0995 138.198 59.592L139.739 58.0377C140.649 57.175 140.761 55.7779 140.283 54.6741L141.556 54.6357C141.27 55.3063 140.806 55.8198 140.318 56.225C138.875 57.3811 137.177 57.9609 135.413 58.415L133.122 58.9773L134.775 57.2134C135.922 55.9211 136.622 54.1747 137.135 52.5261L137.881 52.8753C136.546 54.2969 134.782 55.0269 132.986 55.5753H132.983Z" fill="#231F20"/>
<path d="M118.113 137.708C118.113 137.708 116.105 131.899 120.589 130.122C125.072 128.344 126.965 135.679 126.965 135.679C126.965 135.679 128.06 140.887 124.689 142.336C121.317 143.786 118.546 140.991 118.11 137.708H118.113Z" fill="#FCCF8F"/>
<path d="M126.806 128.484C126.806 128.484 127.506 125.892 129.56 126.357C131.613 126.818 130.498 129.93 130.498 129.93C130.498 129.93 129.616 132.078 128.043 131.77C126.471 131.463 126.157 129.772 126.806 128.484Z" fill="#FCCF8F"/>
<path d="M129.803 136.954C129.803 136.954 130.542 133.8 133.206 134.495C135.866 135.19 134.625 138.962 134.625 138.962C134.625 138.962 133.624 141.561 131.588 141.089C129.556 140.618 129.05 138.508 129.803 136.954Z" fill="#FCCF8F"/>
<path d="M125.73 145.332C125.73 145.332 126.47 142.178 129.133 142.873C131.793 143.569 130.552 147.341 130.552 147.341C130.552 147.341 129.552 149.939 127.516 149.468C125.483 148.996 124.977 146.887 125.73 145.332Z" fill="#FCCF8F"/>
<path d="M123.28 142.893C125.864 142.49 127.508 139.268 126.953 135.696C126.398 132.124 123.853 129.555 121.27 129.958C118.686 130.361 117.042 133.583 117.597 137.155C118.152 140.727 120.696 143.296 123.28 142.893Z" stroke="#231F20" stroke-width="1.79635" stroke-miterlimit="10"/>
<path d="M130.453 130.112C130.052 131.3 128.685 132.086 127.827 131.796C126.97 131.506 126.447 129.533 126.851 128.345C127.256 127.157 129.086 125.949 129.947 126.239C130.808 126.529 130.857 128.925 130.456 130.112H130.453Z" stroke="#231F20" stroke-width="1.79635" stroke-miterlimit="10"/>
<path d="M134.65 138.082C134.583 139.783 133.468 141.124 132.16 141.071C130.849 141.023 129.319 139.601 129.382 137.9C129.444 136.199 131.651 134.292 132.962 134.341C134.273 134.39 134.716 136.381 134.65 138.082Z" stroke="#231F20" stroke-width="1.79635" stroke-miterlimit="10"/>
<path d="M130.633 146.883C130.267 148.546 128.932 149.664 127.652 149.381C126.373 149.098 125.117 147.425 125.483 145.762C125.85 144.1 128.36 142.615 129.639 142.898C130.919 143.181 131.002 145.217 130.636 146.88L130.633 146.883Z" stroke="#231F20" stroke-width="1.79635" stroke-miterlimit="10"/>
<path d="M48.1063 129.606C32.4732 124.541 13.0468 110.304 5.78106 93.5316C-1.48466 76.7591 11.2199 72.7109 11.2199 72.7109" stroke="#231F20" stroke-width="2.39514" stroke-miterlimit="10" stroke-linecap="round"/>
</g>
<defs>
<clipPath id="clip0_968_4580">
<rect width="167" height="219" fill="white"/>
</clipPath>
</defs>
</svg>
